<svg width="112" height="46" viewBox="0 0 112 46" fill="none" xmlns="http://www.w3.org/2000/svg">
<g opacity="0.5">
<path d="M15.238 36.5419H17.9087C18.5998 36.5419 19.1626 36.7556 19.597 37.1834C20.0347 37.611 20.2536 38.1651 20.2536 38.8455C20.2536 39.5291 20.0314 40.0863 19.5871 40.5172C19.1462 40.945 18.5751 41.1587 17.8742 41.1587H16.3438V43.5547H15.238V36.5419ZM16.3438 37.4603V40.2451H17.6125C18.093 40.2451 18.4649 40.1236 18.7282 39.8806C18.9915 39.6376 19.1231 39.2942 19.1231 38.8503C19.1231 38.4097 18.9915 38.0678 18.7282 37.8249C18.4682 37.5818 18.0979 37.4603 17.6175 37.4603H16.3438ZM23.0279 42.8111C23.4031 42.8111 23.7174 42.6994 23.9708 42.4758C24.2274 42.249 24.3558 41.9704 24.3558 41.6399V41.2365L23.0773 41.3142C22.758 41.3369 22.5113 41.4148 22.3368 41.5476C22.1657 41.6772 22.0801 41.8521 22.0801 42.0724C22.0801 42.296 22.1657 42.4758 22.3368 42.6119C22.5113 42.7448 22.7416 42.8111 23.0279 42.8111ZM22.7317 43.6421C22.2216 43.6421 21.8053 43.4996 21.4828 43.2145C21.1635 42.9294 21.0039 42.5584 21.0039 42.1016C21.0039 41.6545 21.1718 41.2997 21.5074 41.0373C21.8431 40.7716 22.3187 40.6226 22.9341 40.5902L24.3558 40.5075V40.1139C24.3558 39.8287 24.2637 39.6068 24.0793 39.4481C23.8951 39.2861 23.64 39.2051 23.3142 39.2051C23.0114 39.2051 22.7646 39.2715 22.5737 39.4043C22.3862 39.5371 22.2677 39.7202 22.2183 39.9535H21.2112C21.2409 39.4805 21.4482 39.0949 21.8332 38.7968C22.2183 38.4987 22.7251 38.3497 23.3538 38.3497C23.9823 38.3497 24.4825 38.502 24.8544 38.8066C25.2296 39.1111 25.4172 39.5193 25.4172 40.0313V43.5547H24.3953V42.7139H24.3706C24.2225 42.9958 23.9971 43.221 23.6943 43.3894C23.3948 43.558 23.074 43.6421 22.7317 43.6421ZM28.4038 43.6519C27.795 43.6519 27.2947 43.5142 26.9031 43.2388C26.5148 42.9635 26.2975 42.5908 26.2514 42.121H27.303C27.3556 42.3414 27.4774 42.5114 27.6683 42.6313C27.8591 42.7479 28.1043 42.8063 28.4038 42.8063C28.7394 42.8063 28.9995 42.7366 29.1837 42.5973C29.3714 42.458 29.4652 42.2733 29.4652 42.0432C29.4652 41.5476 29.113 41.2997 28.4088 41.2997H27.6485V40.527H28.3939C28.9995 40.527 29.3023 40.3034 29.3023 39.8563C29.3023 39.6522 29.2265 39.4902 29.0751 39.3703C28.9238 39.2472 28.7016 39.1856 28.4088 39.1856C28.1225 39.1856 27.8888 39.2424 27.7078 39.3557C27.5267 39.4691 27.4182 39.6263 27.3819 39.8272H26.3601C26.416 39.3703 26.625 39.0107 26.987 38.7483C27.3523 38.4825 27.8246 38.3497 28.4038 38.3497C29.0225 38.3497 29.4997 38.4761 29.8354 38.7288C30.1743 38.9783 30.3439 39.3201 30.3439 39.7542C30.3439 40.0167 30.2681 40.2483 30.1168 40.4492C29.9654 40.6501 29.7647 40.7813 29.5145 40.8429V40.8818C29.8436 40.9563 30.0937 41.094 30.2649 41.2949C30.4393 41.4958 30.5266 41.7435 30.5266 42.0384C30.5266 42.5244 30.3324 42.9148 29.944 43.2097C29.559 43.5045 29.0455 43.6519 28.4038 43.6519ZM34.1746 38.3595C34.8361 38.3595 35.366 38.5976 35.7642 39.0738C36.1624 39.5501 36.3615 40.1916 36.3615 40.9983C36.3615 41.8051 36.1641 42.4483 35.7691 42.9278C35.3742 43.404 34.8493 43.6421 34.1944 43.6421C33.8258 43.6421 33.4983 43.5596 33.212 43.3943C32.9289 43.229 32.7118 43.0023 32.5604 42.7139H32.5357V45.246H31.4694V38.442H32.5011V39.3217H32.5209C32.6755 39.0237 32.8977 38.7888 33.1873 38.617C33.4769 38.4453 33.806 38.3595 34.1746 38.3595ZM33.8932 42.7528C34.3145 42.7528 34.6485 42.5957 34.8953 42.2814C35.1422 41.9639 35.2656 41.5362 35.2656 40.9983C35.2656 40.4638 35.1422 40.0377 34.8953 39.7202C34.6485 39.4027 34.3145 39.2439 33.8932 39.2439C33.4851 39.2439 33.1561 39.4043 32.9059 39.7251C32.6558 40.0458 32.5308 40.4703 32.5308 40.9983C32.5308 41.5298 32.6541 41.9558 32.901 42.2765C33.1511 42.5941 33.4818 42.7528 33.8932 42.7528ZM39.1013 42.8111C39.4764 42.8111 39.7907 42.6994 40.0442 42.4758C40.3009 42.249 40.4292 41.9704 40.4292 41.6399V41.2365L39.1506 41.3142C38.8314 41.3369 38.5845 41.4148 38.4101 41.5476C38.239 41.6772 38.1535 41.8521 38.1535 42.0724C38.1535 42.296 38.239 42.4758 38.4101 42.6119C38.5845 42.7448 38.8149 42.8111 39.1013 42.8111ZM38.805 43.6421C38.295 43.6421 37.8786 43.4996 37.5561 43.2145C37.2369 42.9294 37.0773 42.5584 37.0773 42.1016C37.0773 41.6545 37.2451 41.2997 37.5808 41.0373C37.9165 40.7716 38.3921 40.6226 39.0075 40.5902L40.4292 40.5075V40.1139C40.4292 39.8287 40.3371 39.6068 40.1528 39.4481C39.9685 39.2861 39.7134 39.2051 39.3876 39.2051C39.0848 39.2051 38.838 39.2715 38.6471 39.4043C38.4595 39.5371 38.341 39.7202 38.2917 39.9535H37.2847C37.3142 39.4805 37.5216 39.0949 37.9066 38.7968C38.2917 38.4987 38.7985 38.3497 39.4271 38.3497C40.0557 38.3497 40.5559 38.502 40.9278 38.8066C41.303 39.1111 41.4906 39.5193 41.4906 40.0313V43.5547H40.4687V42.7139H40.4441C40.2959 42.9958 40.0705 43.221 39.7677 43.3894C39.4682 43.558 39.1474 43.6421 38.805 43.6421ZM44.9264 43.6519C44.1102 43.6519 43.4882 43.3927 43.0604 42.8743C42.6358 42.3559 42.4236 41.5929 42.4236 40.5853C42.4236 39.636 42.5207 38.8698 42.7148 38.2865C42.9123 37.7001 43.2151 37.2659 43.6231 36.9841C44.0345 36.7022 44.5727 36.5499 45.2374 36.5272L45.7014 36.5127C46.3432 36.4835 46.7957 36.3993 47.059 36.26V37.1299C46.9899 37.1947 46.8335 37.253 46.59 37.3048C46.3465 37.3567 46.07 37.3891 45.7607 37.4021L45.3065 37.4166C44.961 37.4296 44.6697 37.4781 44.4328 37.5625C44.1991 37.6434 44.0049 37.773 43.8502 37.9512C43.6956 38.1261 43.5755 38.3384 43.4898 38.5879C43.4043 38.8341 43.3369 39.1452 43.2875 39.521H43.3269C43.4915 39.2197 43.7252 38.9896 44.0279 38.8308C44.334 38.6689 44.6911 38.5879 45.0992 38.5879C45.8002 38.5879 46.358 38.8114 46.7727 39.2586C47.1906 39.7057 47.3996 40.305 47.3996 41.0567C47.3996 41.8602 47.1791 42.4936 46.7381 42.9569C46.2972 43.4202 45.6932 43.6519 44.9264 43.6519ZM44.9165 42.7723C45.3575 42.7723 45.6998 42.6249 45.9433 42.33C46.1868 42.0319 46.3087 41.6123 46.3087 41.0713C46.3087 40.5561 46.1868 40.156 45.9433 39.8709C45.6998 39.5858 45.3575 39.4432 44.9165 39.4432C44.4722 39.4432 44.1266 39.5858 43.8799 39.8709C43.6364 40.156 43.5145 40.5561 43.5145 41.0713C43.5145 41.6156 43.6364 42.0352 43.8799 42.33C44.1266 42.6249 44.4722 42.7723 44.9165 42.7723ZM52.346 42.9423C51.8985 43.4154 51.3011 43.6519 50.5541 43.6519C49.807 43.6519 49.2097 43.4154 48.7621 42.9423C48.3145 42.4661 48.0907 41.8181 48.0907 40.9983C48.0907 40.1819 48.3145 39.5371 48.7621 39.0642C49.2097 38.5879 49.807 38.3497 50.5541 38.3497C51.3011 38.3497 51.8985 38.5879 52.346 39.0642C52.7936 39.5371 53.0174 40.1819 53.0174 40.9983C53.0174 41.8181 52.7936 42.4661 52.346 42.9423ZM50.5541 42.7868C50.9786 42.7868 51.3143 42.6297 51.5612 42.3155C51.8079 42.0011 51.9314 41.5621 51.9314 40.9983C51.9314 40.4379 51.8063 40.0004 51.5562 39.6862C51.3094 39.3719 50.9753 39.2148 50.5541 39.2148C50.1328 39.2148 49.7971 39.3719 49.547 39.6862C49.3002 40.0004 49.1768 40.4379 49.1768 40.9983C49.1768 41.5621 49.3002 42.0011 49.547 42.3155C49.7971 42.6297 50.1328 42.7868 50.5541 42.7868ZM57.7071 38.442V39.2731H56.0781V43.5547H55.0167V39.2731H53.3877V38.442H57.7071ZM60.595 40.8429L62.9842 43.5547H61.6465L59.588 41.1977H59.5484V43.5547H58.4871V38.442H59.5484V40.629H59.588L61.6218 38.442H62.8954L60.595 40.8429ZM65.3439 42.8111C65.7191 42.8111 66.0335 42.6994 66.2868 42.4758C66.5436 42.249 66.6719 41.9704 66.6719 41.6399V41.2365L65.3933 41.3142C65.0741 41.3369 64.8273 41.4148 64.6529 41.5476C64.4817 41.6772 64.3961 41.8521 64.3961 42.0724C64.3961 42.296 64.4817 42.4758 64.6529 42.6119C64.8273 42.7448 65.0576 42.8111 65.3439 42.8111ZM65.0478 43.6421C64.5377 43.6421 64.1213 43.4996 63.7988 43.2145C63.4796 42.9294 63.3199 42.5584 63.3199 42.1016C63.3199 41.6545 63.4878 41.2997 63.8235 41.0373C64.1592 40.7716 64.6347 40.6226 65.2501 40.5902L66.6719 40.5075V40.1139C66.6719 39.8287 66.5797 39.6068 66.3954 39.4481C66.2111 39.2861 65.9561 39.2051 65.6303 39.2051C65.3275 39.2051 65.0807 39.2715 64.8898 39.4043C64.7022 39.5371 64.5837 39.7202 64.5343 39.9535H63.5273C63.5569 39.4805 63.7642 39.0949 64.1493 38.7968C64.5343 38.4987 65.0412 38.3497 65.6697 38.3497C66.2983 38.3497 66.7986 38.502 67.1705 38.8066C67.5456 39.1111 67.7332 39.5193 67.7332 40.0313V43.5547H66.7114V42.7139H66.6866C66.5386 42.9958 66.3132 43.221 66.0104 43.3894C65.7109 43.558 65.39 43.6421 65.0478 43.6421ZM75.3407 40.0799H74.3139C74.2415 39.8272 74.1033 39.6214 73.8988 39.4626C73.6949 39.3039 73.4349 39.2245 73.1193 39.2245C72.7075 39.2245 72.3767 39.3865 72.1268 39.7105C71.8802 40.0313 71.7566 40.4605 71.7566 40.9983C71.7566 41.5491 71.8802 41.9834 72.1268 42.3008C72.3767 42.6151 72.7109 42.7723 73.1288 42.7723C73.4416 42.7723 73.7 42.6994 73.9039 42.5536C74.1077 42.4045 74.2476 42.1956 74.3234 41.9266H75.3502C75.2744 42.445 75.0345 42.8629 74.6296 43.1805C74.228 43.4948 73.7247 43.6519 73.1193 43.6519C72.3722 43.6519 71.778 43.4137 71.3371 42.9375C70.8959 42.4612 70.6754 41.8148 70.6754 40.9983C70.6754 40.1949 70.8959 39.5533 71.3371 39.0738C71.7813 38.5911 72.3722 38.3497 73.1091 38.3497C73.7247 38.3497 74.2297 38.515 74.6245 38.8455C75.0227 39.1727 75.2614 39.5841 75.3407 40.0799ZM78.0312 42.8111C78.406 42.8111 78.7199 42.6994 78.9737 42.4758C79.2304 42.249 79.3592 41.9704 79.3592 41.6399V41.2365L78.0807 41.3142C77.7607 41.3369 77.5146 41.4148 77.3394 41.5476C77.1687 41.6772 77.0826 41.8521 77.0826 42.0724C77.0826 42.296 77.1687 42.4758 77.3394 42.6119C77.5146 42.7448 77.7447 42.8111 78.0312 42.8111ZM77.7348 43.6421C77.2243 43.6421 76.8083 43.4996 76.486 43.2145C76.1663 42.9294 76.0068 42.5584 76.0068 42.1016C76.0068 41.6545 76.1747 41.2997 76.5104 41.0373C76.8457 40.7716 77.3218 40.6226 77.9375 40.5902L79.3592 40.5075V40.1139C79.3592 39.8287 79.267 39.6068 79.0826 39.4481C78.8982 39.2861 78.643 39.2051 78.3169 39.2051C78.0144 39.2051 77.7676 39.2715 77.5763 39.4043C77.3889 39.5371 77.2708 39.7202 77.2213 39.9535H76.214C76.2437 39.4805 76.451 39.0949 76.8365 38.7968C77.2213 38.4987 77.7279 38.3497 78.3565 38.3497C78.9851 38.3497 79.4857 38.502 79.8575 38.8066C80.2331 39.1111 80.4205 39.5193 80.4205 40.0313V43.5547H79.398V42.7139H79.3737C79.2258 42.9958 78.9996 43.221 78.6971 43.3894C78.3977 43.558 78.0769 43.6421 77.7348 43.6421ZM82.5927 43.5547H81.5413V38.442H82.5927V42.0238H82.6316L85.0308 38.442H86.0822V43.5547H85.0308V39.9632H84.9912L82.5927 43.5547ZM82.2468 36.1968H82.9676C82.9706 36.4754 83.0559 36.7071 83.2243 36.8918C83.3919 37.0732 83.6121 37.1639 83.8857 37.1639C84.1622 37.1639 84.3839 37.0732 84.5523 36.8918C84.7199 36.7071 84.8053 36.4754 84.8083 36.1968H85.5291C85.5291 36.6569 85.3782 37.0295 85.0757 37.3146C84.7725 37.5965 84.3763 37.7374 83.8857 37.7374C83.398 37.7374 83.0034 37.5965 82.7009 37.3146C82.3977 37.0295 82.2468 36.6569 82.2468 36.1968ZM91.1771 38.442V39.2731H89.5481V43.5547H88.4868V39.2731H86.8578V38.442H91.1771ZM93.6106 42.8111C93.9855 42.8111 94.3001 42.6994 94.5538 42.4758C94.8106 42.249 94.9386 41.9704 94.9386 41.6399V41.2365L93.6601 41.3142C93.3409 41.3369 93.094 41.4148 92.9196 41.5476C92.7481 41.6772 92.6628 41.8521 92.6628 42.0724C92.6628 42.296 92.7481 42.4758 92.9196 42.6119C93.094 42.7448 93.3241 42.8111 93.6106 42.8111ZM93.3142 43.6421C92.8037 43.6421 92.3877 43.4996 92.0655 43.2145C91.7462 42.9294 91.5862 42.5584 91.5862 42.1016C91.5862 41.6545 91.7546 41.2997 92.0898 41.0373C92.4258 40.7716 92.9013 40.6226 93.5169 40.5902L94.9386 40.5075V40.1139C94.9386 39.8287 94.8464 39.6068 94.662 39.4481C94.4777 39.2861 94.2232 39.2051 93.8971 39.2051C93.5946 39.2051 93.347 39.2715 93.1565 39.4043C92.9683 39.5371 92.8502 39.7202 92.8015 39.9535H91.7942C91.8232 39.4805 92.0304 39.0949 92.4159 38.7968C92.8015 38.4987 93.3081 38.3497 93.9367 38.3497C94.5645 38.3497 95.0651 38.502 95.4369 38.8066C95.8125 39.1111 95.9999 39.5193 95.9999 40.0313V43.5547H94.9782V42.7139H94.9538C94.8053 42.9958 94.5797 43.221 94.2773 43.3894C93.9771 43.558 93.6563 43.6421 93.3142 43.6421Z" fill="white"/>
<path d="M19.7965 19.8308C23.7981 19.0296 23.9932 15.5034 23.9935 15.4675C23.9977 15.3705 23.9275 15.2838 23.8312 15.267L22.7355 15.0795L23.4715 14.281C23.5433 14.2031 23.5404 14.082 23.4629 14.0071C23.402 13.9477 21.9134 12.5556 19.3135 12.9206C18.3295 13.0587 17.3113 13.4376 16.2844 14.0446C16.0612 14.1759 15.8442 14.3243 15.6294 14.4886C15.8827 13.9633 16.0575 13.4313 16.1526 12.898C17.0362 7.94021 13.577 6.83186 13.5411 6.82081C13.4544 6.79546 13.3616 6.82814 13.3165 6.90416L12.7248 7.83962L12.2523 6.86058C12.2115 6.77698 12.1243 6.7356 12.0277 6.75453C11.9892 6.76349 8.16216 7.7118 9.0862 12.6981C9.21999 13.4174 9.47606 14.1713 9.85046 14.9443C9.06867 14.0498 8.24848 13.4287 7.4057 13.0913C6.29105 12.6456 5.20568 12.4924 4.18271 12.636C2.57392 12.8618 1.69557 13.7375 1.65761 13.775C1.58195 13.8517 1.58334 13.9748 1.65911 14.05L2.44225 14.8281L1.23699 14.9974C1.15027 15.0095 1.0822 15.0762 1.06922 15.1621C1.06107 15.2186 0.878975 16.5558 1.8121 17.7758C2.55866 18.752 3.79069 19.3618 5.47614 19.5826C6.31154 19.6922 7.28105 19.667 8.40696 19.5106C7.06035 19.9284 6.02909 20.5182 5.33642 21.2659C2.38128 24.4559 4.08787 27.0415 4.10579 27.0658C4.15578 27.1374 4.24903 27.1708 4.32995 27.1433L5.39837 26.8004L5.12202 27.8577C5.09613 27.9543 5.15038 28.0556 5.24565 28.0905C5.28558 28.1046 6.22895 28.4385 7.49085 28.2614C8.70852 28.0904 10.4361 27.3958 11.7512 25.0579C12.1121 24.4139 12.3619 23.6748 12.4969 22.8535C12.6218 23.8009 12.8844 24.5878 13.2868 25.2033C15.3679 28.3867 17.9159 28.4024 18.9141 28.2623C19.307 28.2071 19.5473 28.1198 19.5558 28.1168C19.6451 28.0847 19.6986 27.9914 19.6817 27.899L19.4905 26.8287L20.4858 27.2358C20.5798 27.2744 20.688 27.2359 20.7366 27.1469C20.7551 27.1122 22.5852 23.6173 18.6885 20.603C18.406 20.3834 18.0908 20.1865 17.7494 20.0093C18.464 20.0197 19.135 19.9648 19.7965 19.8308Z" fill="#FA287B"/>
<path d="M12.1671 19.9226C12.1121 20.3824 11.5311 20.6998 11.0972 20.507C10.7657 20.3606 10.6116 19.9658 10.7525 19.6387C10.881 19.3383 11.1967 19.1475 11.521 19.1555C11.9143 19.1665 12.2118 19.541 12.1671 19.9226Z" fill="white"/>
<path d="M11.3224 18.0719C11.2674 18.5318 10.6881 18.8489 10.2525 18.6564C9.92097 18.51 9.76691 18.1152 9.90778 17.7881C10.0365 17.4895 10.352 17.2969 10.6763 17.3049C11.0694 17.3141 11.3688 17.6902 11.3224 18.0719Z" fill="white"/>
<path d="M11.5839 16.1179C11.7126 15.8193 12.0281 15.6267 12.3524 15.6348C12.7457 15.6457 13.0449 16.02 13.0003 16.4016C12.9453 16.8614 12.3642 17.1789 11.9304 16.986C11.5988 16.8396 11.4451 16.4466 11.5839 16.1179Z" fill="white"/>
<path d="M14.5922 19.7608C14.5371 20.2206 13.9579 20.5378 13.5223 20.3453C13.1908 20.1988 13.0366 19.8041 13.1776 19.477C13.3042 19.1768 13.6215 18.984 13.9443 18.994C14.3376 19.005 14.6368 19.3793 14.5922 19.7608Z" fill="white"/>
<path d="M14.9936 17.4602C14.9386 17.92 14.3594 18.2372 13.9255 18.0444C13.5922 17.8981 13.4399 17.5032 13.5808 17.176C13.7075 16.8759 14.025 16.6848 14.3492 16.6929C14.7406 16.7023 15.04 17.0784 14.9936 17.4602Z" fill="white"/>
<path d="M76.1904 7.54102H63.238V9.80331H76.1904V7.54102Z" fill="#FA287B"/>
<path d="M43.0148 26.8C41.6358 28.2434 39.7807 28.9651 37.4493 28.9651C35.118 28.9651 33.2629 28.2434 31.8839 26.8C30.505 25.3468 29.8154 23.3634 29.8154 20.8497C29.8154 18.3458 30.5099 16.3673 31.8988 14.9141C33.2877 13.4511 35.1379 12.7196 37.4493 12.7196C39.7708 12.7196 41.621 13.4511 43 14.9141C44.3888 16.3673 45.0833 18.3458 45.0833 20.8497C45.0833 23.3634 44.3938 25.3468 43.0148 26.8ZM34.622 24.6938C35.3165 25.607 36.2589 26.0636 37.4493 26.0636C38.6398 26.0636 39.5823 25.607 40.2768 24.6938C40.9712 23.7807 41.3184 22.4993 41.3184 20.8497C41.3184 19.21 40.9712 17.9334 40.2768 17.0203C39.5823 16.0973 38.6398 15.6358 37.4493 15.6358C36.2688 15.6358 35.3264 16.0973 34.622 17.0203C33.9275 17.9334 33.5803 19.21 33.5803 20.8497C33.5803 22.4993 33.9275 23.7807 34.622 24.6938ZM51.3184 19.5536L57.2559 13.0436H61.5267L55.2173 19.7598L61.7946 28.6558H57.5089L52.5238 21.9838L51.2738 23.2357V28.6558H47.5684V7.40259H51.2738V19.5536H51.3184ZM68.9672 26.1372C70.0288 26.1372 70.9216 25.8279 71.6458 25.2093C72.3799 24.5809 72.747 23.8003 72.747 22.8675V21.6745L69.1011 21.8954C68.2083 21.9543 67.5139 22.1752 67.0178 22.5582C66.5317 22.9314 66.2886 23.4272 66.2886 24.0458C66.2886 24.684 66.5317 25.1946 67.0178 25.5776C67.5139 25.9507 68.1636 26.1372 68.9672 26.1372ZM67.8512 28.9061C66.3135 28.9061 65.0486 28.4692 64.0565 27.5954C63.0744 26.7214 62.5833 25.5874 62.5833 24.193C62.5833 22.8086 63.0992 21.7138 64.1309 20.9086C65.1726 20.1035 66.6557 19.642 68.5803 19.5241L72.747 19.2885V18.1691C72.747 17.3541 72.4841 16.7208 71.9583 16.2691C71.4424 15.8175 70.7232 15.5916 69.8006 15.5916C68.9375 15.5916 68.2331 15.7831 67.6874 16.166C67.1418 16.549 66.8095 17.0694 66.6904 17.7272H63.2529C63.3323 16.2446 63.9722 15.0417 65.1726 14.1188C66.3829 13.186 67.9751 12.7196 69.9494 12.7196C71.9037 12.7196 73.4662 13.1909 74.6368 14.1335C75.8174 15.0761 76.4076 16.333 76.4076 17.904V28.6558H72.8363V26.1667H72.7619C72.3155 27.0013 71.6408 27.669 70.7381 28.1698C69.8353 28.6607 68.873 28.9061 67.8512 28.9061ZM79.3988 28.6558V13.0436H82.9554V15.7242H83.03C83.4659 14.7816 84.1013 14.05 84.9348 13.5296C85.7775 13.0092 86.7946 12.749 87.9847 12.749C89.7112 12.749 91.0506 13.2645 92.003 14.2955C92.9653 15.3265 93.4461 16.7502 93.4461 18.5668V28.6558H89.7409V19.3032C89.7409 18.1838 89.4735 17.3296 88.9371 16.7404C88.4114 16.1513 87.6281 15.8567 86.5866 15.8567C85.5245 15.8567 84.6765 16.2004 84.0419 16.8877C83.4163 17.5751 83.104 18.4833 83.104 19.6125V28.6558H79.3988ZM103.223 15.5622C102.191 15.5622 101.328 15.9157 100.634 16.6226C99.9497 17.3197 99.5672 18.2182 99.488 19.3179H106.854C106.814 18.2084 106.462 17.305 105.797 16.6079C105.133 15.9108 104.275 15.5622 103.223 15.5622ZM106.869 23.9869H110.336C110.098 25.4695 109.339 26.6724 108.059 27.5954C106.779 28.5085 105.212 28.9651 103.357 28.9651C100.996 28.9651 99.1405 28.2483 97.792 26.8147C96.4426 25.3713 95.7676 23.4027 95.7676 20.9086C95.7676 18.4342 96.4373 16.4508 97.7767 14.9583C99.1261 13.4658 100.936 12.7196 103.208 12.7196C105.441 12.7196 107.211 13.4314 108.521 14.8552C109.83 16.2691 110.485 18.1642 110.485 20.5404V21.7334H99.4582V21.9543C99.4582 23.2111 99.8156 24.2225 100.529 24.9884C101.254 25.7542 102.221 26.1372 103.432 26.1372C104.285 26.1372 105.019 25.9457 105.634 25.5628C106.259 25.17 106.67 24.6447 106.869 23.9869Z" fill="white"/>
</g>
</svg>
